Coordinates
version=1
nRows=43
nColumns=12
inDegrees=yes

Units are S.I. units (second, meters, Newtons, ...)
Angles are in degrees

endheader
time	SC_y	SC_z	SC_x	AC_y	AC_z	AC_x	GH_y	GH_z	GH_yy	EL_x	PS_y
       0.0              -31.77          6.329           30.8          65.55         -19.22          1.721          157.7          48.87         -90.09          29.52           34.4
   0.03842              -31.78          6.328           30.8          65.55         -19.22          1.722          157.7          48.86         -90.06          29.53           34.4
   0.07683              -31.78          6.326          30.81          65.55         -19.21          1.724          157.6          48.85         -90.02          29.54           34.4
    0.1152              -31.79          6.324          30.81          65.54         -19.21          1.725          157.6          48.84         -89.98          29.55           34.4
    0.1537              -31.79          6.322          30.81          65.54         -19.21          1.726          157.5          48.83         -89.94          29.56           34.4
    0.1921               -31.8           6.32          30.81          65.54          -19.2          1.728          157.5          48.82         -89.89          29.57           34.4
    0.2305               -31.8          6.318          30.82          65.53         -19.19           1.73          157.4          48.81         -89.84          29.58           34.4
    0.2689              -31.81          6.316          30.82          65.53         -19.19          1.732          157.4          48.79         -89.79          29.59           34.4
    0.3073              -31.81          6.314          30.82          65.52         -19.18          1.734          157.3          48.78         -89.73           29.6           34.4
    0.3457              -31.82          6.311          30.83          65.52         -19.17          1.736          157.2          48.77         -89.67          29.61           34.4
    0.3842              -31.83          6.308          30.83          65.51         -19.17          1.738          157.2          48.75         -89.61          29.63          34.39
    0.4226              -31.83          6.305          30.84          65.51         -19.16          1.741          157.1          48.73         -89.54          29.64          34.39
     0.461              -31.84          6.302          30.84           65.5         -19.15          1.743          157.0          48.72         -89.46          29.66          34.39
    0.4994              -31.85          6.298          30.85           65.5         -19.14          1.746          156.9           48.7         -89.38          29.68          34.39
    0.5378              -31.86          6.294          30.85          65.49         -19.13          1.749          156.8          48.68         -89.29          29.69          34.39
    0.5762              -31.87           6.29          30.86          65.48         -19.12          1.752          156.7          48.65         -89.19          29.71          34.39
    0.6146              -31.88          6.285          30.86          65.47         -19.11          1.756          156.6          48.63         -89.09          29.74          34.39
    0.6531              -31.89           6.28          30.87          65.46          -19.1           1.76          156.4           48.6         -88.98          29.76          34.39
    0.6915              -31.91          6.275          30.88          65.46         -19.08          1.764          156.3          48.57         -88.85          29.79          34.39
    0.7299              -31.92          6.269          30.89          65.44         -19.07          1.769          156.1          48.54         -88.72          29.82          34.39
    0.7683              -31.94          6.263           30.9          65.43         -19.05          1.774          156.0          48.51         -88.57          29.85          34.39
    0.8067              -31.96          6.255          30.91          65.42         -19.03           1.78          155.8          48.47         -88.41          29.88          34.39
    0.8451              -31.98          6.248          30.92          65.41         -19.01          1.786          155.6          48.43         -88.23          29.92          34.39
    0.8836               -32.0          6.239          30.93          65.39         -18.99          1.793          155.3          48.38         -88.03          29.96          34.39
     0.922              -32.02          6.229          30.95          65.37         -18.96          1.801          155.1          48.33          -87.8          30.01          34.38
    0.9604              -32.05          6.218          30.96          65.35         -18.93           1.81          154.8          48.27         -87.56          30.06          34.38
    0.9988              -32.08          6.206          30.98          65.33          -18.9           1.82          154.4           48.2         -87.28          30.12          34.38
     1.037              -32.12          6.192           31.0          65.31         -18.86          1.831          154.1          48.13         -86.97          30.19          34.38
     1.076              -32.15          6.177          31.02          65.28         -18.82          1.843          153.7          48.04         -86.61          30.26          34.38
     1.114               -32.2          6.159          31.05          65.25         -18.78          1.857          153.2          47.95         -86.21          30.35          34.38
     1.152              -32.25          6.139          31.08          65.21         -18.73          1.873          152.7          47.84         -85.75          30.45          34.37
     1.191              -32.31          6.116          31.11          65.17         -18.66          1.892          152.1          47.72         -85.23          30.56          34.37
     1.229              -32.37          6.089          31.15          65.12          -18.6          1.913          151.3          47.57         -84.62          30.69          34.37
     1.268              -32.45          6.058          31.19          65.07         -18.51          1.938          150.5          47.41         -83.92          30.84          34.36
     1.306              -32.54          6.022          31.25           65.0         -18.42          1.967          149.6          47.21         -83.09          31.01          34.36
     1.345              -32.65           5.98          31.31          64.93         -18.31          2.001          148.4          46.98         -82.12          31.22          34.35
     1.383              -32.77          5.929          31.38          64.84         -18.18          2.041          147.1          46.71         -80.96          31.47          34.35
     1.421              -32.93          5.868          31.47          64.73         -18.02           2.09          145.5          46.38         -79.58          31.76          34.34
      1.46              -33.11          5.795          31.58           64.6         -17.82          2.149          143.5          45.99          -77.9          32.12          34.33
     1.498              -33.33          5.705          31.71          64.44         -17.59           2.22          141.1           45.5         -75.86          32.55          34.32
     1.537              -33.61          5.594          31.87          64.24          -17.3          2.309          138.2          44.91         -73.33          33.09           34.3
     1.575              -33.96          5.456          32.07          63.99         -16.94           2.42          134.5          44.16         -70.18          33.76          34.29
     1.613              -34.39          5.282          32.32          63.68         -16.48          2.559          129.9          43.23         -66.21           34.6          34.27
